Motion_pl02
version=1
nRows=9
nColumns=43
inDegrees=yes
endheader
time	pelvis_tilt	pelvis_list	pelvis_rotation	pelvis_tx	pelvis_ty	pelvis_tz	hip_flexion_r	hip_adduction_r	hip_rotation_r	knee_angle_r	ankle_angle_r	subtalar_angle_r	mtp_angle_r	hip_flexion_l	hip_adduction_l	hip_rotation_l	knee_angle_l	ankle_angle_l	subtalar_angle_l	mtp_angle_l	lumbar_extension	lumbar_bending	lumbar_rotation	neck_flexion	neck_lateral_bending	neck_rotation	arm_flex_r	arm_add_r	arm_rot_r	elbow_flex_r	pro_sup_r	wrist_flex_r	wrist_dev_r	hand_finger_flex_r	arm_flex_l	arm_add_l	arm_rot_l	elbow_flex_l	pro_sup_l	wrist_flex_l	wrist_dev_l	hand_finger_flex_l
      0.00250000	     -0.30827488	      5.77651506	     92.34305734	      0.02609603	      2.06606080	      1.86660513	     26.23451088	     -3.34901093	     -2.54665338	    -78.26131922	     25.92451761	     -4.82334180	     -2.86173626	     27.52937783	     -1.79908291	      4.36684844	    -77.69653027	     25.70643763	     -8.04279901	     -4.32307328	    -49.23334442	      0.82123089	     -3.91862235	     -0.58068297	      0.66105166	      3.27581574	    -20.66859613	    -19.05782335	     -8.25778936	     73.58502505	    116.48689221	    -53.40653677	    -17.32145519	     25.35563105	    -21.60298873	    -12.33799230	    -24.63064946	     78.81401187	    135.63599577	    -30.05455726	      0.59569257	     48.89908373
      0.00500000	     -0.31764204	      5.77166947	     92.26112324	      0.02624634	      2.06444430	      1.86679456	     26.49462376	     -3.34127446	     -2.51708704	    -78.68166947	     26.07562963	     -4.83300764	     -2.85450574	     27.71308158	     -1.81228970	      4.31107855	    -78.07061723	     26.08375921	     -8.00991916	     -4.31813533	    -49.43378495	      0.72430254	     -3.90479986	     -0.31371023	      0.86766686	      3.20528575	    -20.24988702	    -18.99996087	     -8.00473836	     72.95434509	    116.14377896	    -53.04880078	    -17.19977268	     25.41362249	    -21.41877251	    -12.23734274	    -24.61415365	     78.45819364	    135.62003458	    -29.88887668	      0.87841684	     49.01611546
      0.00750000	     -0.33343540	      5.70865852	     92.18501373	      0.02635236	      2.06266927	      1.86708181	     26.84115773	     -3.33452742	     -2.44190830	    -79.13934624	     26.15174907	     -4.84881712	     -2.86606858	     28.00304768	     -1.81552138	      4.27050671	    -78.50760991	     26.20851029	     -7.87506018	     -4.35621187	    -49.57675810	      0.64583850	     -3.90143972	     -0.05295736	      0.89069350	      3.22465547	    -19.89463581	    -18.97352769	     -7.76126893	     72.46711069	    115.62168039	    -52.54645916	    -17.03838100	     25.50551440	    -21.23687536	    -12.16089746	    -24.56418890	     78.12096466	    135.39416442	    -29.53879435	      1.21311159	     49.23116493
      0.01000000	     -0.34769037	      5.39838664	     92.09045015	      0.02657247	      2.05997186	      1.86746806	     27.57329335	     -3.29778365	     -2.29988024	    -79.81514534	     26.16920039	     -4.85865616	     -2.92745183	     28.63706949	     -1.84156395	      4.21864028	    -79.07216331	     26.37032801	     -7.67867159	     -4.49492205	    -49.41301791	      0.53980545	     -3.93665685	      0.02584509	      0.98008283	      3.28141330	    -19.66911144	    -19.00788672	     -7.48548393	     72.25528034	    114.32465092	    -51.51414292	    -16.86774736	     25.64457502	    -21.20425330	    -12.06550856	    -24.65525549	     78.02310547	    134.48859819	    -28.63404360	      1.81504455	     49.83545888
      0.01250000	     -0.35121667	      5.44791757	     92.07417284	      0.02650820	      2.05840686	      1.86768016	     27.74972382	     -3.32564320	     -2.30189342	    -80.21002342	     26.24354903	     -4.88133635	     -2.92721350	     28.80116549	     -1.80338678	      4.25048024	    -79.50809865	     26.46994895	     -7.70820307	     -4.51607010	    -49.69261981	      0.53972454	     -3.86096832	      0.32592225	      0.96125767	      3.29356296	    -19.35906783	    -18.89679452	     -7.42312911	     71.72215126	    114.08371365	    -51.28883681	    -16.75769463	     25.65001836	    -20.92333376	    -11.98858967	    -24.53126088	     77.60105960	    134.33771874	    -28.43043132	      1.90953306	     49.92091755
      0.01500000	     -0.32441126	      5.22047265	     92.04714282	      0.02658479	      2.05601820	      1.86803396	     28.33338823	     -3.31584375	     -2.26117915	    -80.79199178	     26.25897189	     -4.75299235	     -2.96462649	     29.35481388	     -1.80785804	      4.30217887	    -80.07594778	     26.55914260	     -7.62684467	     -4.65845977	    -49.63769820	      0.52075865	     -3.84827983	      0.49484918	      1.00327323	      3.22794047	    -19.09777530	    -18.90834831	     -7.21478762	     71.39275927	    113.02859024	    -50.31109196	    -16.54393263	     25.72276854	    -20.77490249	    -11.94165368	    -24.55512383	     77.35417277	    133.27867944	    -27.44290681	      2.16516976	     50.53449909
      0.01750000	     -0.32600537	      5.26532120	     92.04732733	      0.02651211	      2.05444447	      1.86824959	     28.51607636	     -3.33582505	     -2.24201612	    -81.21803565	     26.34331897	     -4.76454960	     -2.95716531	     29.51716756	     -1.77756254	      4.33606391	    -80.47271512	     26.67619778	     -7.64506262	     -4.67352128	    -49.92471344	      0.53835175	     -3.79248641	      0.82761595	      0.98594951	      3.25584412	    -18.74858312	    -18.78149619	     -7.16847394	     70.82961385	    112.80043640	    -50.07327524	    -16.37085536	     25.72775510	    -20.46555826	    -11.85996942	    -24.44099020	     76.90887167	    133.11988861	    -27.21736752	      2.24893999	     50.63179278
      0.02000000	     -0.31569231	      5.25385417	     92.04268756	      0.02649735	      2.05275912	      1.86849098	     28.77710086	     -3.35465825	     -2.22241164	    -81.65542155	     26.38380467	     -4.69205298	     -2.95199941	     29.75411676	     -1.75885796	      4.38173426	    -80.89466669	     26.77907444	     -7.62597910	     -4.69665673	    -50.14811384	      0.54200810	     -3.74846968	      1.16927060	      0.99787574	      3.23099451	    -18.36000095	    -18.69917224	     -7.04277597	     70.25674865	    112.45255604	    -49.63996503	    -16.08547093	     25.78926997	    -20.16859671	    -11.82147062	    -24.33617180	     76.47153631	    132.79409103	    -26.78862260	      2.36030402	     50.85180518
      0.02250000	     -0.30631144	      4.98461322	     92.04151746	      0.02652976	      2.05014346	      1.86881625	     29.41665449	     -3.38230380	     -2.17896972	    -82.30042577	     26.43628840	     -4.45594964	     -2.94749932	     30.35816411	     -1.74151628	      4.43761594	    -81.48158100	     26.86970933	     -7.48046475	     -4.80947325	    -50.04394693	      0.52942638	     -3.79771687	      1.29088047	      1.04980706	      3.20533714	    -18.10489287	    -18.71893787	     -6.84645356	     70.03553986	    111.45636314	    -48.52213204	    -15.49226926	     25.92006268	    -20.04324220	    -11.73025699	    -24.51175323	     76.27554591	    131.54924735	    -25.42953208	      2.58218528	     51.68767013
